# xmcd
#
# Track frame offsets:
# 150
# 12664
# 26502
# 46730
# 60090
# 70491
# 82135
# 99315
# 116581
# 129529
# 142090
# 158476
# 175315
# 192824
#
# Disc length: 2820 seconds
#
#
# Revision: 0
# Processed by: cddbd v1.5.2PL0 Copyright (c) Steve Scherf et al.
# Submitted via: FreeRIP 2.945 
#
DISCID=b80b020e
DTITLE=The Pyromantics - on track
DYEAR=2005
DGENRE=Country
TTITLE0=Be My Baby Tonight
TTITLE1=Cowboy Cadillac
TTITLE2=Calamity Jane
TTITLE3=Promised Land
TTITLE4=Last Night
TTITLE5=Good Old Boys
TTITLE6=Unique
TTITLE7=If Tomorrow Never Comes
TTITLE8=Hard Workin  Man
TTITLE9=Rock´n´Roll Overdose
TTITLE10=The Devil Went Down To Georgia
TTITLE11=Boots, Shirts And Jeans
TTITLE12=I Wanna Ask You Pretty Baby
TTITLE13=Foggy Mountain Breakdown
EXTD=
EXTT0=
EXTT1=
EXTT2=
EXTT3=
EXTT4=
EXTT5=
EXTT6=
EXTT7=
EXTT8=
EXTT9=
EXTT10=
EXTT11=
EXTT12=
EXTT13=
PLAYORDER=
